<?xml version="1.0" encoding="UTF-8" standalone="no"?>
<!DOCTYPE svg PUBLIC "-//W3C//DTD SVG 1.1//EN" "http://www.w3.org/Graphics/SVG/1.1/DTD/svg11.dtd">
<svg xmlns="http://www.w3.org/2000/svg" version="1.1" viewBox="0.00 0.00 1000.00 276.00">
<g stroke-width="2.00" fill="none" stroke-linecap="butt">
<path stroke="#bdc9d6" vector-effect="non-scaling-stroke" d="
  M 614.01 177.31
  C 631.13 185.99 653.13 182.97 665.38 167.07
  Q 665.67 166.70 665.22 166.56
  L 654.69 163.30
  Q 654.21 163.15 653.87 163.52
  Q 644.69 173.57 630.75 172.25
  Q 619.48 171.18 613.18 163.03
  C 603.04 149.91 614.06 134.05 628.25 131.47
  Q 643.70 128.65 654.55 139.73
  Q 654.92 140.11 655.41 139.93
  L 665.47 136.33
  Q 665.94 136.16 665.63 135.77
  Q 659.61 128.21 651.00 124.70
  C 632.57 117.17 607.18 122.48 599.09 142.57
  C 593.40 156.71 601.09 170.77 614.01 177.31"
/>
<path stroke="#bdc9d6" vector-effect="non-scaling-stroke" d="
  M 753.7674 150.7396
  A 36.69 30.33 -1.5 0 0 716.2961 121.3804
  A 36.69 30.33 -1.5 0 0 680.4126 152.6604
  A 36.69 30.33 -1.5 0 0 717.8839 182.0196
  A 36.69 30.33 -1.5 0 0 753.7674 150.7396"
/>
<path stroke="#bdc9d6" vector-effect="non-scaling-stroke" d="
  M 767.50 123.94
  L 767.40 179.62
  A 0.73 0.73 0.0 0 0 768.13 180.36
  L 802.70 180.42
  A 28.74 28.45 0.1 0 0 831.49 152.02
  L 831.49 151.78
  A 28.74 28.45 0.1 0 0 802.80 123.28
  L 768.23 123.22
  A 0.73 0.73 0.0 0 0 767.50 123.94"
/>
<path stroke="#bdc9d6" vector-effect="non-scaling-stroke" d="
  M 910.44 123.94
  A 0.55 0.55 0.0 0 0 909.89 123.39
  L 850.61 123.39
  A 0.55 0.55 0.0 0 0 850.06 123.94
  L 850.06 131.58
  A 0.55 0.55 0.0 0 0 850.61 132.13
  L 909.89 132.13
  A 0.55 0.55 0.0 0 0 910.44 131.58
  L 910.44 123.94"
/>
<path stroke="#bdc9d6" vector-effect="non-scaling-stroke" d="
  M 741.6255 151.2287
  A 24.55 20.81 -1.1 0 0 716.6805 130.8938
  A 24.55 20.81 -1.1 0 0 692.5345 152.1713
  A 24.55 20.81 -1.1 0 0 717.4795 172.5062
  A 24.55 20.81 -1.1 0 0 741.6255 151.2287"
/>
<path stroke="#bdc9d6" vector-effect="non-scaling-stroke" d="
  M 779.55 133.28
  L 779.67 170.26
  A 0.48 0.48 0.0 0 0 780.16 170.74
  L 800.19 170.67
  A 19.11 18.88 -0.2 0 0 819.23 151.72
  L 819.23 151.54
  A 19.11 18.88 -0.2 0 0 800.05 132.73
  L 780.02 132.80
  A 0.48 0.48 0.0 0 0 779.55 133.28"
/>
<path stroke="#bdc9d6" vector-effect="non-scaling-stroke" d="
  M 910.43 147.80
  A 0.58 0.58 0.0 0 0 909.85 147.22
  L 850.63 147.22
  A 0.58 0.58 0.0 0 0 850.05 147.80
  L 850.05 155.72
  A 0.58 0.58 0.0 0 0 850.63 156.30
  L 909.85 156.30
  A 0.58 0.58 0.0 0 0 910.43 155.72
  L 910.43 147.80"
/>
<path stroke="#bdc9d6" vector-effect="non-scaling-stroke" d="
  M 910.47 171.70
  A 0.47 0.47 0.0 0 0 910.00 171.23
  L 850.54 171.23
  A 0.47 0.47 0.0 0 0 850.07 171.70
  L 850.07 179.84
  A 0.47 0.47 0.0 0 0 850.54 180.31
  L 910.00 180.31
  A 0.47 0.47 0.0 0 0 910.47 179.84
  L 910.47 171.70"
/>
</g>
<path fill="#53b7e8" d="
  M 594.12 86.07
  A 0.40 0.40 0.0 0 0 594.13 85.40
  L 580.62 76.43
  Q 580.23 76.17 580.23 75.70
  L 580.08 61.81
  Q 580.08 61.65 580.21 61.75
  L 603.69 80.02
  A 1.04 1.03 -70.8 0 1 604.08 80.83
  L 604.07 90.43
  Q 604.07 90.93 603.67 91.24
  L 580.78 108.90
  Q 580.15 109.38 580.15 108.59
  L 580.19 95.40
  Q 580.20 94.92 580.60 94.66
  L 594.12 86.07
  Z"
/>
<path fill="#53b7e8" d="
  M 551.35 86.03
  L 564.89 94.79
  Q 565.25 95.02 565.25 95.44
  L 565.28 108.85
  Q 565.28 109.36 564.88 109.05
  L 541.66 91.10
  Q 541.24 90.78 541.24 90.26
  L 541.19 80.95
  Q 541.19 80.52 541.53 80.25
  L 564.80 62.11
  Q 565.29 61.73 565.29 62.17
  L 565.24 75.60
  Q 565.24 76.14 564.79 76.43
  L 551.35 85.32
  Q 550.81 85.67 551.35 86.03
  Z"
/>
<path fill="#7a92ac" d="
  M 618.01 182.53
  C 586.28 171.59 586.58 133.22 617.10 121.35
  Q 633.94 114.81 651.70 121.62
  Q 662.54 125.78 670.29 136.59
  A 1.08 1.07 -27.5 0 1 669.77 138.23
  L 653.95 143.90
  Q 653.49 144.07 653.21 143.66
  C 647.37 134.96 635.80 132.40 626.26 135.28
  C 618.46 137.64 611.45 145.27 612.66 153.91
  C 613.57 160.40 619.75 166.26 625.98 168.01
  Q 642.44 172.61 652.79 159.80
  A 0.66 0.66 0.0 0 1 653.50 159.58
  L 670.11 164.62
  Q 670.56 164.76 670.32 165.17
  C 659.60 183.78 637.35 189.20 618.01 182.53
  Z
  M 614.01 177.31
  C 631.13 185.99 653.13 182.97 665.38 167.07
  Q 665.67 166.70 665.22 166.56
  L 654.69 163.30
  Q 654.21 163.15 653.87 163.52
  Q 644.69 173.57 630.75 172.25
  Q 619.48 171.18 613.18 163.03
  C 603.04 149.91 614.06 134.05 628.25 131.47
  Q 643.70 128.65 654.55 139.73
  Q 654.92 140.11 655.41 139.93
  L 665.47 136.33
  Q 665.94 136.16 665.63 135.77
  Q 659.61 128.21 651.00 124.70
  C 632.57 117.17 607.18 122.48 599.09 142.57
  C 593.40 156.71 601.09 170.77 614.01 177.31
  Z"
/>
<path fill="#7a92ac" d="
  M 756.9763 150.6655
  A 39.90 33.57 -1.5 0 1 717.9688 185.2685
  A 39.90 33.57 -1.5 0 1 677.2037 152.7545
  A 39.90 33.57 -1.5 0 1 716.2112 118.1515
  A 39.90 33.57 -1.5 0 1 756.9763 150.6655
  Z
  M 753.7674 150.7396
  A 36.69 30.33 -1.5 0 0 716.2961 121.3804
  A 36.69 30.33 -1.5 0 0 680.4126 152.6604
  A 36.69 30.33 -1.5 0 0 717.8839 182.0196
  A 36.69 30.33 -1.5 0 0 753.7674 150.7396
  Z"
/>
<path fill="#7a92ac" d="
  M 314.41 146.23
  C 309.17 129.09 284.86 128.06 278.46 144.95
  Q 277.29 148.03 277.29 154.22
  Q 277.29 167.90 277.27 181.57
  Q 277.27 182.12 276.73 182.11
  L 262.30 182.10
  Q 261.81 182.10 261.81 181.61
  Q 261.81 170.02 261.81 158.50
  Q 261.81 148.69 263.14 144.17
  C 272.83 111.14 321.46 111.83 329.90 145.42
  Q 330.99 149.77 330.99 160.16
  Q 330.99 170.86 330.99 181.57
  Q 330.99 182.09 330.46 182.10
  L 315.63 182.11
  Q 315.19 182.11 315.19 181.67
  Q 315.22 166.25 315.22 150.75
  Q 315.22 148.88 314.41 146.23
  Z"
/>
<path fill="#7a92ac" d="
  M 356.79 155.85
  C 358.36 162.67 365.14 167.59 371.52 169.44
  C 381.15 172.23 392.55 171.05 400.55 164.73
  A 1.20 1.19 -55.3 0 1 401.63 164.53
  L 415.51 168.78
  A 0.29 0.29 0.0 0 1 415.64 169.25
  C 405.39 180.58 392.02 184.43 377.23 183.65
  C 362.45 182.86 346.66 174.91 342.03 159.81
  C 337.22 144.13 348.04 128.53 362.78 122.88
  Q 381.23 115.81 399.05 124.22
  C 411.14 129.93 419.19 141.55 417.33 154.99
  A 0.36 0.35 -86.3 0 1 416.98 155.30
  L 357.24 155.29
  Q 356.66 155.29 356.79 155.85
  Z
  M 357.90 144.62
  A 0.71 0.71 0.0 0 0 358.50 145.72
  L 400.49 145.72
  A 0.63 0.63 0.0 0 0 401.02 144.75
  C 390.89 128.57 368.47 128.34 357.90 144.62
  Z"
/>
<path fill="#7a92ac" d="
  M 445.11 128.78
  Q 445.08 130.01 445.96 129.16
  C 451.91 123.44 460.48 119.40 468.93 119.73
  Q 469.40 119.75 469.40 120.22
  L 469.39 135.54
  Q 469.39 136.08 468.86 135.96
  C 460.54 134.08 449.52 135.48 446.32 144.27
  Q 445.32 147.02 445.27 153.88
  Q 445.16 167.73 445.24 181.60
  A 0.50 0.50 0.0 0 1 444.74 182.11
  L 429.98 182.10
  Q 429.60 182.10 429.60 181.73
  L 429.60 121.69
  A 0.22 0.21 90.0 0 1 429.81 121.47
  L 444.75 121.45
  Q 445.30 121.45 445.28 122.00
  L 445.11 128.78
  Z"
/>
<path fill="#7a92ac" d="
  M 534.87 176.55
  Q 532.77 177.86 530.63 179.03
  C 516.69 186.68 498.74 184.79 486.20 175.33
  C 474.89 166.79 470.92 151.72 477.00 138.93
  Q 481.08 130.33 489.49 125.78
  Q 512.91 113.11 535.27 125.78
  Q 545.87 131.80 549.42 143.38
  Q 550.78 147.84 550.77 156.21
  Q 550.76 167.98 550.72 179.73
  Q 550.70 186.74 549.73 190.16
  C 544.90 207.08 525.08 216.28 509.01 214.46
  C 495.57 212.93 483.05 206.00 477.51 193.56
  A 0.39 0.39 0.0 0 1 477.76 193.03
  L 491.51 188.85
  Q 491.93 188.73 492.12 189.12
  C 498.35 202.10 514.78 204.60 526.35 197.54
  C 534.33 192.67 536.10 185.70 535.39 176.81
  Q 535.35 176.25 534.87 176.55
  Z
  M 535.3650 152.1402
  A 22.93 19.07 1.2 0 0 512.8394 132.5942
  A 22.93 19.07 1.2 0 0 489.5150 151.1798
  A 22.93 19.07 1.2 0 0 512.0406 170.7258
  A 22.93 19.07 1.2 0 0 535.3650 152.1402
  Z"
/>
<path fill="#7a92ac" d="
  M 764.42 120.22
  A 0.40 0.40 0.0 0 1 764.83 119.82
  L 802.57 119.89
  A 32.24 31.86 0.1 0 1 834.75 151.80
  L 834.75 151.82
  A 32.24 31.86 0.1 0 1 802.45 183.63
  L 764.71 183.56
  A 0.40 0.40 0.0 0 1 764.32 183.16
  L 764.42 120.22
  Z
  M 767.50 123.94
  L 767.40 179.62
  A 0.73 0.73 0.0 0 0 768.13 180.36
  L 802.70 180.42
  A 28.74 28.45 0.1 0 0 831.49 152.02
  L 831.49 151.78
  A 28.74 28.45 0.1 0 0 802.80 123.28
  L 768.23 123.22
  A 0.73 0.73 0.0 0 0 767.50 123.94
  Z"
/>
<path fill="#7a92ac" d="
  M 913.60 135.10
  A 0.29 0.29 0.0 0 1 913.31 135.39
  L 847.27 135.39
  A 0.29 0.29 0.0 0 1 846.98 135.10
  L 846.98 120.22
  A 0.29 0.29 0.0 0 1 847.27 119.93
  L 913.31 119.93
  A 0.29 0.29 0.0 0 1 913.60 120.22
  L 913.60 135.10
  Z
  M 910.44 123.94
  A 0.55 0.55 0.0 0 0 909.89 123.39
  L 850.61 123.39
  A 0.55 0.55 0.0 0 0 850.06 123.94
  L 850.06 131.58
  A 0.55 0.55 0.0 0 0 850.61 132.13
  L 909.89 132.13
  A 0.55 0.55 0.0 0 0 910.44 131.58
  L 910.44 123.94
  Z"
/>
<path fill="#7a92ac" d="
  M 231.81 177.03
  C 229.68 178.47 227.48 179.99 225.28 180.92
  C 204.99 189.54 182.88 177.45 179.23 156.00
  Q 178.46 151.51 178.46 146.00
  Q 178.44 133.99 178.51 121.97
  Q 178.51 121.42 179.05 121.42
  L 193.72 121.45
  Q 194.26 121.45 194.26 122.00
  Q 194.31 136.63 194.30 151.25
  C 194.28 176.69 232.18 176.93 232.23 151.25
  Q 232.26 136.62 232.26 121.99
  Q 232.26 121.46 232.78 121.46
  L 246.98 121.46
  Q 247.58 121.46 247.58 122.06
  Q 247.52 150.95 247.56 179.79
  Q 247.57 187.68 246.26 192.07
  C 237.47 221.47 192.45 222.00 180.70 194.29
  Q 180.49 193.80 181.00 193.65
  L 194.75 189.49
  Q 195.22 189.35 195.38 189.81
  C 201.16 206.36 226.97 205.18 231.55 188.25
  C 232.44 184.92 232.33 180.99 232.31 177.29
  Q 232.31 176.70 231.81 177.03
  Z"
/>
<path fill="#ffffff" d="
  M 665.38 167.07
  C 653.13 182.97 631.13 185.99 614.01 177.31
  C 601.09 170.77 593.40 156.71 599.09 142.57
  C 607.18 122.48 632.57 117.17 651.00 124.70
  Q 659.61 128.21 665.63 135.77
  Q 665.94 136.16 665.47 136.33
  L 655.41 139.93
  Q 654.92 140.11 654.55 139.73
  Q 643.70 128.65 628.25 131.47
  C 614.06 134.05 603.04 149.91 613.18 163.03
  Q 619.48 171.18 630.75 172.25
  Q 644.69 173.57 653.87 163.52
  Q 654.21 163.15 654.69 163.30
  L 665.22 166.56
  Q 665.67 166.70 665.38 167.07
  Z"
/>
<path fill="#ffffff" d="
  M 753.7674 150.7396
  A 36.69 30.33 -1.5 0 1 717.8839 182.0196
  A 36.69 30.33 -1.5 0 1 680.4126 152.6604
  A 36.69 30.33 -1.5 0 1 716.2961 121.3804
  A 36.69 30.33 -1.5 0 1 753.7674 150.7396
  Z
  M 741.6255 151.2287
  A 24.55 20.81 -1.1 0 0 716.6805 130.8938
  A 24.55 20.81 -1.1 0 0 692.5345 152.1713
  A 24.55 20.81 -1.1 0 0 717.4795 172.5062
  A 24.55 20.81 -1.1 0 0 741.6255 151.2287
  Z"
/>
<path fill="#7a92ac" d="
  M 150.82 160.68
  C 148.42 157.91 144.92 157.45 141.50 157.47
  Q 125.25 157.58 109.00 157.47
  C 100.43 157.42 90.68 151.54 88.38 142.91
  C 87.99 141.45 87.00 140.49 87.41 138.74
  C 90.09 127.24 100.26 121.58 111.50 121.53
  Q 135.61 121.43 159.72 121.47
  Q 160.25 121.47 160.25 122.00
  L 160.25 132.99
  Q 160.25 133.51 159.74 133.51
  Q 135.36 133.52 111.00 133.52
  C 106.68 133.52 101.87 138.21 105.07 142.66
  C 106.52 144.68 109.25 145.56 111.90 145.55
  Q 127.70 145.52 143.50 145.52
  Q 151.85 145.52 158.75 149.44
  C 168.82 155.16 171.63 167.49 162.22 175.49
  C 155.60 181.12 149.30 181.76 139.86 181.78
  Q 118.10 181.80 96.31 181.76
  Q 95.80 181.76 95.80 181.25
  L 95.80 170.25
  Q 95.81 169.74 96.31 169.74
  Q 120.66 169.72 144.99 169.72
  C 149.20 169.72 154.52 164.94 150.82 160.68
  Z"
/>
<rect fill="#53b7e8" x="564.87" y="121.47" width="15.62" height="60.30" rx="0.31"/>
<path fill="#ffffff" d="
  M 767.50 123.94
  A 0.73 0.73 0.0 0 1 768.23 123.22
  L 802.80 123.28
  A 28.74 28.45 0.1 0 1 831.49 151.78
  L 831.49 152.02
  A 28.74 28.45 0.1 0 1 802.70 180.42
  L 768.13 180.36
  A 0.73 0.73 0.0 0 1 767.40 179.62
  L 767.50 123.94
  Z
  M 779.55 133.28
  L 779.67 170.26
  A 0.48 0.48 0.0 0 0 780.16 170.74
  L 800.19 170.67
  A 19.11 18.88 -0.2 0 0 819.23 151.72
  L 819.23 151.54
  A 19.11 18.88 -0.2 0 0 800.05 132.73
  L 780.02 132.80
  A 0.48 0.48 0.0 0 0 779.55 133.28
  Z"
/>
<rect fill="#ffffff" x="850.06" y="123.39" width="60.38" height="8.74" rx="0.55"/>
<path fill="#7a92ac" d="
  M 741.6255 151.2287
  A 24.55 20.81 -1.1 0 1 717.4795 172.5062
  A 24.55 20.81 -1.1 0 1 692.5345 152.1713
  A 24.55 20.81 -1.1 0 1 716.6805 130.8938
  A 24.55 20.81 -1.1 0 1 741.6255 151.2287
  Z
  M 738.4661 151.2899
  A 21.36 17.56 -1.1 0 0 716.7729 134.1432
  A 21.36 17.56 -1.1 0 0 695.7539 152.1101
  A 21.36 17.56 -1.1 0 0 717.4471 169.2568
  A 21.36 17.56 -1.1 0 0 738.4661 151.2899
  Z"
/>
<path fill="#7a92ac" d="
  M 779.55 133.28
  A 0.48 0.48 0.0 0 1 780.02 132.80
  L 800.05 132.73
  A 19.11 18.88 -0.2 0 1 819.23 151.54
  L 819.23 151.72
  A 19.11 18.88 -0.2 0 1 800.19 170.67
  L 780.16 170.74
  A 0.48 0.48 0.0 0 1 779.67 170.26
  L 779.55 133.28
  Z
  M 782.90 136.53
  L 782.74 166.89
  A 0.62 0.62 0.0 0 0 783.36 167.52
  L 800.02 167.60
  A 15.94 15.75 0.3 0 0 816.04 151.94
  L 816.04 151.84
  A 15.94 15.75 0.3 0 0 800.18 136.00
  L 783.52 135.92
  A 0.62 0.62 0.0 0 0 782.90 136.53
  Z"
/>
<path fill="#7a92ac" d="
  M 913.60 159.17
  A 0.34 0.34 0.0 0 1 913.26 159.51
  L 847.32 159.51
  A 0.34 0.34 0.0 0 1 846.98 159.17
  L 846.98 144.45
  A 0.34 0.34 0.0 0 1 847.32 144.11
  L 913.26 144.11
  A 0.34 0.34 0.0 0 1 913.60 144.45
  L 913.60 159.17
  Z
  M 910.43 147.80
  A 0.58 0.58 0.0 0 0 909.85 147.22
  L 850.63 147.22
  A 0.58 0.58 0.0 0 0 850.05 147.80
  L 850.05 155.72
  A 0.58 0.58 0.0 0 0 850.63 156.30
  L 909.85 156.30
  A 0.58 0.58 0.0 0 0 910.43 155.72
  L 910.43 147.80
  Z"
/>
<rect fill="#ffffff" x="850.05" y="147.22" width="60.38" height="9.08" rx="0.58"/>
<path fill="#7a92ac" d="
  M 913.60 183.23
  A 0.31 0.31 0.0 0 1 913.29 183.54
  L 847.29 183.54
  A 0.31 0.31 0.0 0 1 846.98 183.23
  L 846.98 168.49
  A 0.31 0.31 0.0 0 1 847.29 168.18
  L 913.29 168.18
  A 0.31 0.31 0.0 0 1 913.60 168.49
  L 913.60 183.23
  Z
  M 910.47 171.70
  A 0.47 0.47 0.0 0 0 910.00 171.23
  L 850.54 171.23
  A 0.47 0.47 0.0 0 0 850.07 171.70
  L 850.07 179.84
  A 0.47 0.47 0.0 0 0 850.54 180.31
  L 910.00 180.31
  A 0.47 0.47 0.0 0 0 910.47 179.84
  L 910.47 171.70
  Z"
/>
<rect fill="#ffffff" x="850.07" y="171.23" width="60.40" height="9.08" rx="0.47"/>
</svg>
